<?xml version="1.0" standalone="no"?>
<svg xmlns="http://www.w3.org/2000/svg" viewBox="0 0 1440 320">
  <path fill="#F6C70C" fill-opacity="1" d="M0,288L34.3,277.3C68.6,267,137,245,206,245.3C274.3,245,343,267,411,250.7C480,235,549,181,617,165.3C685.7,149,754,171,823,192C891.4,213,960,235,1029,234.7C1097.1,235,1166,213,1234,197.3C1302.9,181,1371,171,1406,165.3L1440,160L1440,0L1405.7,0C1371.4,0,1303,0,1234,0C1165.7,0,1097,0,1029,0C960,0,891,0,823,0C754.3,0,686,0,617,0C548.6,0,480,0,411,0C342.9,0,274,0,206,0C137.1,0,69,0,34,0L0,0Z"></path>
<path fill="#333" fill-opacity="1" d="M0,224L40,202.7C80,181,160,139,240,112C320,85,400,75,480,96C560,117,640,171,720,197.3C800,224,880,224,960,197.3C1040,171,1120,117,1200,96C1280,75,1360,85,1400,90.7L1440,96L1440,0L1400,0C1360,0,1280,0,1200,0C1120,0,1040,0,960,0C880,0,800,0,720,0C640,0,560,0,480,0C400,0,320,0,240,0C160,0,80,0,40,0L0,0Z"></path>
</svg>